HIERARCHY
ROOT hip
{
  OFFSET 0 0 0
  CHANNELS 6 Xposition Yposition Zposition Zrotation Yrotation Xrotation
  JOINT abdomen
  {
    OFFSET 0 20.6881 -0.73152
    CHANNELS 3 Zrotation Xrotation Yrotation
    JOINT chest
    {
      OFFSET 0 11.7043 -0.48768
      CHANNELS 3 Zrotation Xrotation Yrotation
      JOINT neck
      {
        OFFSET 0 22.1894 -2.19456
        CHANNELS 3 Zrotation Xrotation Yrotation
        JOINT head
        {
          OFFSET -0.24384 7.07133 1.2192
          CHANNELS 3 Zrotation Xrotation Yrotation
          JOINT leftEye
          {
            OFFSET 4.14528 8.04674 8.04672
            CHANNELS 3 Zrotation Xrotation Yrotation
            End Site
            {
              OFFSET 1 0 0
            }
          }
          JOINT rightEye
          {
            OFFSET -3.6576 8.04674 8.04672
            CHANNELS 3 Zrotation Xrotation Yrotation
            End Site
            {
              OFFSET 1 0 0
            }
          }
        }
      }
      JOINT rCollar
      {
        OFFSET -2.68224 19.2634 -4.8768
        CHANNELS 3 Zrotation Xrotation Yrotation
        JOINT rShldr
        {
          OFFSET -8.77824 -1.95073 1.46304
          CHANNELS 3 Zrotation Xrotation Yrotation
          JOINT rForeArm
          {
            OFFSET -28.1742 -1.7115 0.48768
            CHANNELS 3 Zrotation Xrotation Yrotation
            JOINT rHand
            {
              OFFSET -22.5879 0.773209 7.07136
              CHANNELS 3 Zrotation Xrotation Yrotation
              JOINT rThumb1
              {
                OFFSET -1.2192 -0.487915 3.41376
                CHANNELS 3 Zrotation Xrotation Yrotation
                JOINT rThumb2
                {
                  OFFSET -3.37035 -0.52449 3.41376
                  CHANNELS 3 Zrotation Xrotation Yrotation
                  End Site
                  {
                    OFFSET -1.78271 -1.18214 1.43049
                  }
                }
              }
              JOINT rIndex1
              {
                OFFSET -7.75947 0.938293 5.60832
                CHANNELS 3 Zrotation Xrotation Yrotation
                JOINT rIndex2
                {
                  OFFSET -2.54057 -0.884171 1.56538
                  CHANNELS 3 Zrotation Xrotation Yrotation
                  End Site
                  {
                    OFFSET -1.62519 -0.234802 1.16502
                  }
                }
              }
              JOINT rMid1
              {
                OFFSET -8.24714 1.18213 3.41376
                CHANNELS 3 Zrotation Xrotation Yrotation
                JOINT rMid2
                {
                  OFFSET -3.10165 -0.590103 1.0647
                  CHANNELS 3 Zrotation Xrotation Yrotation
                  End Site
                  {
                    OFFSET -2.48547 -0.328903 0.83742
                  }
                }
              }
              JOINT rRing1
              {
                OFFSET -8.82822 0.546677 1.51678
                CHANNELS 3 Zrotation Xrotation Yrotation
                JOINT rRing2
                {
                  OFFSET -2.60934 -0.819778 -0.0198488
                  CHANNELS 3 Zrotation Xrotation Yrotation
                  End Site
                  {
                    OFFSET -2.33842 -0.294052 0.168128
                  }
                }
              }
              JOINT rPinky1
              {
                OFFSET -8.27202 -0.0477905 -0.4584
                CHANNELS 3 Zrotation Xrotation Yrotation
                JOINT rPinky2
                {
                  OFFSET -1.82734 -0.647385 -0.700984
                  CHANNELS 3 Zrotation Xrotation Yrotation
                  End Site
                  {
                    OFFSET -1.69225 -0.51767 -0.607171
                  }
                }
              }
            }
          }
        }
      }
      JOINT lCollar
      {
        OFFSET 2.68224 19.2634 -4.8768
        CHANNELS 3 Zrotation Xrotation Yrotation
        JOINT lShldr
        {
          OFFSET 8.77824 -1.95073 1.46304
          CHANNELS 3 Zrotation Xrotation Yrotation
          JOINT lForeArm
          {
            OFFSET 28.1742 -1.7115 0.48768
            CHANNELS 3 Zrotation Xrotation Yrotation
            JOINT lHand
            {
              OFFSET 22.5879 0.773209 7.07136
              CHANNELS 3 Zrotation Xrotation Yrotation
              JOINT lThumb1
              {
                OFFSET 1.2192 -0.487915 3.41376
                CHANNELS 3 Zrotation Xrotation Yrotation
                JOINT lThumb2
                {
                  OFFSET 3.37035 -0.52449 3.41376
                  CHANNELS 3 Zrotation Xrotation Yrotation
                  End Site
                  {
                    OFFSET 1.78271 -1.18214 1.43049
                  }
                }
              }
              JOINT lIndex1
              {
                OFFSET 7.75947 0.938293 5.60832
                CHANNELS 3 Zrotation Xrotation Yrotation
                JOINT lIndex2
                {
                  OFFSET 2.54057 -0.884171 1.56538
                  CHANNELS 3 Zrotation Xrotation Yrotation
                  End Site
                  {
                    OFFSET 1.62519 -0.234802 1.16502
                  }
                }
              }
              JOINT lMid1
              {
                OFFSET 8.24714 1.18213 3.41376
                CHANNELS 3 Zrotation Xrotation Yrotation
                JOINT lMid2
                {
                  OFFSET 3.10165 -0.590103 1.0647
                  CHANNELS 3 Zrotation Xrotation Yrotation
                  End Site
                  {
                    OFFSET 2.48547 -0.328903 0.83742
                  }
                }
              }
              JOINT lRing1
              {
                OFFSET 8.82822 0.546677 1.51678
                CHANNELS 3 Zrotation Xrotation Yrotation
                JOINT lRing2
                {
                  OFFSET 2.60934 -0.819778 -0.0198488
                  CHANNELS 3 Zrotation Xrotation Yrotation
                  End Site
                  {
                    OFFSET 2.33842 -0.294052 0.168128
                  }
                }
              }
              JOINT lPinky1
              {
                OFFSET 8.27202 -0.0477905 -0.4584
                CHANNELS 3 Zrotation Xrotation Yrotation
                JOINT lPinky2
                {
                  OFFSET 1.82734 -0.647385 -0.700984
                  CHANNELS 3 Zrotation Xrotation Yrotation
                  End Site
                  {
                    OFFSET 1.69225 -0.51767 -0.607171
                  }
                }
              }
            }
          }
        }
      }
    }
  }
  JOINT rButtock
  {
    OFFSET -8.77824 4.35084 1.2192
    CHANNELS 3 Zrotation Xrotation Yrotation
    JOINT rThigh
    {
      OFFSET 0 -1.70687 -2.19456
      CHANNELS 3 Zrotation Xrotation Yrotation
      JOINT rShin
      {
        OFFSET 0 -36.8199 0.73152
        CHANNELS 3 Zrotation Xrotation Yrotation
        JOINT rFoot
        {
          OFFSET 0.73152 -45.1104 -5.12064
          CHANNELS 3 Zrotation Xrotation Yrotation
          End Site
          {
            OFFSET -1.1221 -3.69964 12.103
          }
        }
      }
    }
  }
  JOINT lButtock
  {
    OFFSET 8.77824 4.35084 1.2192
    CHANNELS 3 Zrotation Xrotation Yrotation
    JOINT lThigh
    {
      OFFSET 0 -1.70687 -2.19456
      CHANNELS 3 Zrotation Xrotation Yrotation
      JOINT lShin
      {
        OFFSET 0 -36.8199 0.73152
        CHANNELS 3 Zrotation Xrotation Yrotation
        JOINT lFoot
        {
          OFFSET -0.73152 -45.1104 -5.12064
          CHANNELS 3 Zrotation Xrotation Yrotation
          End Site
          {
            OFFSET 1.1221 -3.69964 12.103
          }
        }
      }
    }
  }
}
MOTION
Frames:	8
Frame Time:	0.00833333
63.7394 80.93 -74.2411 24.2108 -47.8303 -17.1095 3.96252 13.8564 -14.6176 4.37354 1.17722 -4.09605 8.78692 14.5829 12.8253 -30.3944 -5.23635 22.6761 -0.0 0.0 0.0 -0.0 0.0 0.0 3.82389e-13 2.49464e-12 -1.06749e-12 46.6441 -15.3829 -24.3001 -13.1197 -6.26189 23.8052 -0.00525551 1.557 0.219038 -2.59605e-09 1.33725e-08 -3.49243e-09 -4.4862e-09 2.31477e-08 -6.0452e-09 -2.59605e-09 1.33725e-08 -3.49244e-09 7.73091 5.47488 0.417314 -2.59605e-09 1.33725e-08 -3.49243e-09 2.90554 0.965183 0.102902 -2.59604e-09 1.33725e-08 -3.49242e-09 10.2786 0.731801 0.0259123 -2.59605e-09 1.33725e-08 -3.49241e-09 2.22167 -0.733487 -0.20892 3.82242e-13 2.49472e-12 -1.06779e-12 -53.9422 29.9514 -18.5611 22.5242 -16.5655 -45.2284 0.117451 9.82344 -1.39371 -4.38643e-10 1.79603e-09 2.91496e-09 -7.28417e-10 3.06966e-09 5.03071e-09 -4.38642e-10 1.79603e-09 2.91497e-09 -7.73091 5.47488 -0.417314 -4.38643e-10 1.79603e-09 2.91496e-09 -2.90554 0.965183 -0.102902 -4.3865e-10 1.79603e-09 2.91496e-09 -10.2786 0.731801 -0.0259123 -4.38642e-10 1.79603e-09 2.91495e-09 -2.22167 -0.733487 0.20892 -2.03217e-16 0.0 -3.88251e-19 1.86596 -37.7356 13.0705 -0.318146 36.4909 0.00843696 -0.836566 3.5209 -10.2159 2.03217e-16 0.0 3.88251e-19 -9.07562 -9.57081 16.7988 0.275453 35.7305 -0.615457 6.21195 16.2467 -27.3077
63.4783 80.5919 -73.7328 22.9679 -47.6348 -16.3121 5.02651 14.207 -14.8117 4.42346 0.940685 -4.09995 8.80683 14.6752 12.7748 -30.7511 -5.66756 22.5103 -0.0 0.0 0.0 -0.0 0.0 0.0 3.88039e-13 2.54758e-12 -1.09078e-12 45.4334 -16.8794 -25.3197 -12.7691 -6.0028 23.1087 -0.00606322 2.22274 0.312545 -3.13564e-09 1.49058e-08 -4.47986e-09 -5.42179e-09 2.58005e-08 -7.75359e-09 -3.13563e-09 1.49058e-08 -4.47987e-09 7.73091 5.47488 0.417314 -3.13564e-09 1.49058e-08 -4.47986e-09 2.90554 0.965183 0.102902 -3.13562e-09 1.49058e-08 -4.47986e-09 10.2786 0.731801 0.0259123 -3.13564e-09 1.49058e-08 -4.47984e-09 2.22167 -0.733487 -0.20892 3.87892e-13 2.54766e-12 -1.09108e-12 -55.7107 30.3727 -17.5944 22.6073 -16.697 -45.464 0.15297 11.0797 -1.57706 6.18392e-10 6.68731e-10 3.02914e-09 1.10059e-09 1.11567e-09 5.22242e-09 6.18394e-10 6.68734e-10 3.02915e-09 -7.73091 5.47488 -0.417314 6.18393e-10 6.68732e-10 3.02914e-09 -2.90554 0.965183 -0.102902 6.18386e-10 6.68733e-10 3.02914e-09 -10.2786 0.731801 -0.0259123 6.18394e-10 6.68736e-10 3.02913e-09 -2.22167 -0.733487 0.20892 -2.03217e-16 0.0 -3.88251e-19 2.30065 -37.7438 13.7708 -0.348846 38.0153 0.0287091 -0.841469 3.54046 -11.2501 2.03217e-16 0.0 3.88251e-19 -7.93056 -10.0931 17.7262 0.309228 37.9423 -0.697061 7.72482 19.4294 -27.3137
63.0952 80.2256 -73.3445 20.9893 -47.9495 -14.8422 6.55503 14.4452 -15.0057 4.46509 0.894225 -4.09766 8.72527 14.674 12.8115 -30.96 -6.1642 22.496 -0.0 0.0 0.0 -0.0 0.0 0.0 2.70744e-13 1.66982e-12 -5.72894e-13 44.1217 -18.6022 -25.8513 -12.3354 -5.69159 22.2526 -0.0131285 3.12683 0.440391 -2.00872e-09 1.07704e-08 -4.02904e-09 -3.47662e-09 1.86499e-08 -6.97649e-09 -2.00871e-09 1.07704e-08 -4.02905e-09 7.73091 5.47488 0.417314 -2.00872e-09 1.07704e-08 -4.02904e-09 2.90554 0.965183 0.102902 -2.00871e-09 1.07704e-08 -4.02904e-09 10.2786 0.731801 0.0259123 -2.00872e-09 1.07704e-08 -4.02903e-09 2.22167 -0.733487 -0.20892 2.70624e-13 1.66988e-12 -5.73163e-13 -57.7333 30.331 -16.5702 22.6591 -16.7793 -45.6134 0.183313 11.9924 -1.71129 1.599e-09 -1.31081e-09 1.39203e-09 2.77839e-09 -2.29065e-09 2.38833e-09 1.599e-09 -1.31081e-09 1.39204e-09 -7.73091 5.47488 -0.417314 1.599e-09 -1.31081e-09 1.39203e-09 -2.90554 0.965183 -0.102902 1.59899e-09 -1.31081e-09 1.39203e-09 -10.2786 0.731801 -0.0259123 1.599e-09 -1.3108e-09 1.39202e-09 -2.22167 -0.733487 0.20892 -2.03217e-16 0.0 -3.88251e-19 2.92433 -37.85 13.7093 -0.37537 39.2608 0.0484776 -0.918226 3.13998 -11.384 2.03217e-16 0.0 3.88251e-19 -6.10988 -11.043 18.8205 0.35406 40.4706 -0.776597 8.99187 22.6671 -26.7079
62.6292 79.921 -72.9137 18.831 -48.3241 -13.2574 8.44078 14.6472 -15.1862 4.50397 0.961231 -4.0852 8.57448 14.617 12.9115 -31.093 -6.73935 22.5874 -0.0 0.0 0.0 -0.0 0.0 0.0 6.76668e-14 1.50268e-13 3.12387e-13 42.7526 -20.5324 -26.0394 -11.8378 -5.3423 21.2845 -0.02791 4.21166 0.594544 1.70913e-10 2.8059e-09 -2.66839e-09 2.87866e-10 4.8767e-09 -4.62701e-09 1.70915e-10 2.8059e-09 -2.66841e-09 7.73091 5.47488 0.417314 1.70912e-10 2.80591e-09 -2.6684e-09 2.90554 0.965183 0.102902 1.70921e-10 2.8059e-09 -2.66839e-09 10.2786 0.731801 0.0259123 1.70912e-10 2.8059e-09 -2.66838e-09 2.22167 -0.733487 -0.20892 6.75919e-14 1.50294e-13 3.12166e-13 -59.9144 29.9304 -15.5083 22.6863 -16.8229 -45.69 0.202335 12.6087 -1.80203 2.66018e-09 -4.01458e-09 -1.43903e-09 4.58299e-09 -6.93548e-09 -2.50901e-09 2.66018e-09 -4.01459e-09 -1.43903e-09 -7.73091 5.47488 -0.417314 2.66018e-09 -4.01458e-09 -1.43903e-09 -2.90554 0.965183 -0.102902 2.66017e-09 -4.01458e-09 -1.43903e-09 -10.2786 0.731801 -0.0259123 2.66018e-09 -4.01458e-09 -1.43903e-09 -2.22167 -0.733487 0.20892 -2.03217e-16 0.0 -3.88251e-19 3.71099 -38.0806 13.1115 -0.402515 40.4694 0.07301 -1.05984 2.3341 -10.9466 2.03217e-16 0.0 3.88251e-19 -3.71689 -12.3295 20.0517 0.413025 43.3205 -0.86299 10.0019 26.0852 -25.5969
62.2578 79.7644 -72.3435 17.4875 -48.3154 -12.4845 10.2173 14.8152 -15.3413 4.58403 1.08034 -4.07255 8.45228 14.5198 13.0198 -31.1589 -7.2742 22.703 -0.0 0.0 0.0 -0.0 0.0 0.0 -1.27087e-13 -1.30985e-12 1.14807e-12 41.3612 -22.7612 -26.1301 -11.3212 -4.98815 20.2959 -0.045918 5.5772 0.788101 2.19563e-09 -5.365e-09 -1.0915e-09 3.78556e-09 -9.26049e-09 -1.90032e-09 2.19563e-09 -5.36499e-09 -1.09152e-09 7.73091 5.47488 0.417314 2.19562e-09 -5.36499e-09 -1.0915e-09 2.90554 0.965183 0.102902 2.19563e-09 -5.365e-09 -1.0915e-09 10.2786 0.731801 0.0259123 2.19563e-09 -5.365e-09 -1.0915e-09 2.22167 -0.733487 -0.20892 -1.27118e-13 -1.30986e-12 1.1479e-12 -61.852 29.5599 -14.5165 22.6957 -16.8385 -45.7149 0.212376 12.981 -1.85673 3.41249e-09 -6.26827e-09 -4.09318e-09 5.85553e-09 -1.0803e-08 -7.0985e-09 3.41249e-09 -6.26829e-09 -4.09318e-09 -7.73091 5.47488 -0.417314 3.41249e-09 -6.26827e-09 -4.09318e-09 -2.90554 0.965183 -0.102902 3.41249e-09 -6.26827e-09 -4.09318e-09 -10.2786 0.731801 -0.0259123 3.4125e-09 -6.26826e-09 -4.09318e-09 -2.22167 -0.733487 0.20892 -2.03217e-16 0.0 -3.88251e-19 4.32099 -38.3238 12.2103 -0.428699 41.6049 0.101662 -1.20804 1.3565 -10.2973 2.03217e-16 0.0 3.88251e-19 -1.28075 -13.7244 21.1939 0.482737 46.1882 -0.955139 10.6789 29.1697 -24.4319
62.1304 79.6807 -71.6003 18.1349 -47.7655 -13.1474 11.4182 14.9513 -15.4591 4.74931 1.19017 -4.06968 8.4562 14.3982 13.0812 -31.1702 -7.65147 22.7587 -0.0 0.0 0.0 -0.0 0.0 0.0 -2.19411e-13 -2.0093e-12 1.51717e-12 39.9458 -25.3657 -26.3903 -10.8354 -4.66482 19.3778 -0.0662321 7.32333 1.03492 2.85779e-09 -1.01195e-08 8.04044e-12 4.93035e-09 -1.7503e-08 8.39348e-12 2.85778e-09 -1.01195e-08 8.02454e-12 7.73091 5.47488 0.417314 2.85778e-09 -1.01195e-08 8.04044e-12 2.90554 0.965183 0.102902 2.85779e-09 -1.01195e-08 8.03965e-12 10.2786 0.731801 0.0259123 2.85779e-09 -1.01195e-08 8.04362e-12 2.22167 -0.733487 -0.20892 -2.1942e-13 -2.00933e-12 1.51703e-12 -63.1781 29.6172 -13.6837 22.6942 -16.8363 -45.7094 0.217277 13.1613 -1.88327 3.46651e-09 -6.89753e-09 -5.19956e-09 5.93713e-09 -1.18775e-08 -9.00901e-09 3.46651e-09 -6.89755e-09 -5.19956e-09 -7.73091 5.47488 -0.417314 3.46651e-09 -6.89753e-09 -5.19955e-09 -2.90554 0.965183 -0.102902 3.4665e-09 -6.89753e-09 -5.19955e-09 -10.2786 0.731801 -0.0259123 3.46652e-09 -6.89753e-09 -5.19955e-09 -2.22167 -0.733487 0.20892 -2.03217e-16 0.0 -3.88251e-19 4.42444 -38.4696 11.2446 -0.452128 42.6311 0.133656 -1.32916 0.446146 -9.79191 2.03217e-16 0.0 3.88251e-19 0.627688 -15.0179 22.0059 0.556476 48.77 -1.04884 11.0948 31.3651 -23.6857
62.0977 79.4141 -70.8076 19.3484 -46.9793 -14.027 11.8353 15.0448 -15.5638 5.05157 1.30713 -4.09204 8.66617 14.208 13.075 -31.131 -7.79424 22.7242 -0.0 0.0 0.0 -0.0 0.0 0.0 -1.33428e-13 -1.45467e-12 1.13983e-12 38.3124 -28.7557 -27.0022 -10.36 -4.36392 18.4785 -0.102521 9.92027 1.40394 1.2489e-09 -9.78549e-09 4.69835e-10 2.15389e-09 -1.69735e-08 8.28713e-10 1.2489e-09 -9.78547e-09 4.6982e-10 7.73091 5.47488 0.417314 1.2489e-09 -9.78547e-09 4.69835e-10 2.90554 0.965183 0.102902 1.24891e-09 -9.78548e-09 4.69835e-10 10.2786 0.731801 0.0259123 1.2489e-09 -9.78548e-09 4.69841e-10 2.22167 -0.733487 -0.20892 -1.33452e-13 -1.45471e-12 1.13967e-12 -63.6879 30.3252 -13.0636 22.6818 -16.8163 -45.6745 0.21121 12.9784 -1.85619 2.31212e-09 -4.83751e-09 -3.85842e-09 3.95544e-09 -8.3262e-09 -6.68215e-09 2.31212e-09 -4.83753e-09 -3.85841e-09 -7.73091 5.47488 -0.417314 2.31212e-09 -4.83751e-09 -3.85841e-09 -2.90554 0.965183 -0.102902 2.31212e-09 -4.83752e-09 -3.85841e-09 -10.2786 0.731801 -0.0259123 2.31213e-09 -4.83751e-09 -3.85841e-09 -2.22167 -0.733487 0.20892 -2.03217e-16 0.0 -3.88251e-19 3.77306 -38.5207 10.0768 -0.47315 43.5726 0.170064 -1.43398 -0.397788 -9.46289 2.03217e-16 0.0 3.88251e-19 1.75899 -16.2364 22.3114 0.629056 51.0377 -1.14403 11.5048 32.6724 -23.6597
61.9067 79.3629 -70.1132 19.605 -46.3925 -14.232 11.7446 15.0984 -15.6523 5.45415 1.45303 -4.13009 9.0118 13.9569 13.033 -31.0352 -7.78052 22.6454 -0.0 0.0 0.0 -0.0 0.0 0.0 6.37441e-14 -1.22085e-13 2.94667e-13 36.4421 -32.748 -27.9112 -9.88123 -4.07347 17.5745 -0.186404 13.1655 1.87633 -1.79146e-09 -6.53052e-09 6.5561e-10 -3.09386e-09 -1.14126e-08 1.18197e-09 -1.79146e-09 -6.5305e-09 6.55597e-10 7.73091 5.47488 0.417314 -1.79147e-09 -6.5305e-09 6.5561e-10 2.90554 0.965183 0.102902 -1.79146e-09 -6.53051e-09 6.55612e-10 10.2786 0.731801 0.0259123 -1.79146e-09 -6.53051e-09 6.55621e-10 2.22167 -0.733487 -0.20892 6.36844e-14 -1.22122e-13 2.94475e-13 -63.6363 31.4413 -12.591 22.6554 -16.7739 -45.6005 0.194543 12.4663 -1.7805 2.92452e-10 -9.65097e-10 -9.78942e-10 4.94079e-10 -1.65593e-09 -1.69121e-09 2.9245e-10 -9.65109e-10 -9.78935e-10 -7.73091 5.47488 -0.417314 2.92451e-10 -9.65099e-10 -9.78937e-10 -2.90554 0.965183 -0.102902 2.92443e-10 -9.65102e-10 -9.78937e-10 -10.2786 0.731801 -0.0259123 2.92457e-10 -9.65103e-10 -9.7894e-10 -2.22167 -0.733487 0.20892 -2.03217e-16 0.0 -3.88251e-19 2.6013 -38.5131 8.64878 -0.492634 44.4372 0.21104 -1.53309 -1.28118 -9.1413 2.03217e-16 0.0 3.88251e-19 2.41074 -17.4822 22.2685 0.703735 53.1358 -1.24172 11.8755 33.3072 -24.0311
